<mxfile host="app.diagrams.net" modified="2021-07-08T18:13:04.188Z" agent="5.0 (Windows NT 10.0; Win64; x64) AppleWebKit/537.36 (KHTML, like Gecko) Chrome/91.0.4472.124 Safari/537.36 Edg/91.0.864.64" etag="tu7tPImZOKAYsP9IxlMe" version="14.8.5" type="github">
  <diagram id="q6EtwT-zD9d8GnBGvhUz" name="Page-1">
    <mxGraphModel dx="1070" dy="662" grid="1" gridSize="10" guides="1" tooltips="1" connect="1" arrows="1" fold="1" page="1" pageScale="1" pageWidth="850" pageHeight="1100" math="0" shadow="0">
      <root>
        <mxCell id="0" />
        <mxCell id="1" parent="0" />
        <mxCell id="LpFCpJJtLy2Ta8kGQRxm-1" value="Internet" style="ellipse;shape=cloud;whiteSpace=wrap;html=1;" parent="1" vertex="1">
          <mxGeometry x="200" y="91" width="120" height="80" as="geometry" />
        </mxCell>
        <mxCell id="LpFCpJJtLy2Ta8kGQRxm-2" value="ITB Public Users" style="rounded=1;whiteSpace=wrap;html=1;" parent="1" vertex="1">
          <mxGeometry x="60" y="100" width="118" height="60" as="geometry" />
        </mxCell>
        <mxCell id="LpFCpJJtLy2Ta8kGQRxm-4" value="SCED / SC2G" style="swimlane;fillColor=#f8cecc;strokeColor=#b85450;" parent="1" vertex="1">
          <mxGeometry x="340" y="40" width="130" height="380" as="geometry" />
        </mxCell>
        <mxCell id="LpFCpJJtLy2Ta8kGQRxm-5" value="GC CAP" style="image;html=1;image=img/lib/clip_art/networking/Firewall_128x128.png" parent="LpFCpJJtLy2Ta8kGQRxm-4" vertex="1">
          <mxGeometry x="33" y="62" width="65" height="60" as="geometry" />
        </mxCell>
        <mxCell id="LpFCpJJtLy2Ta8kGQRxm-14" value="GC TIP" style="image;html=1;image=img/lib/clip_art/networking/Firewall_128x128.png;labelPosition=center;verticalLabelPosition=top;align=center;verticalAlign=bottom;" parent="LpFCpJJtLy2Ta8kGQRxm-4" vertex="1">
          <mxGeometry x="32.5" y="210" width="65" height="60" as="geometry" />
        </mxCell>
        <mxCell id="LpFCpJJtLy2Ta8kGQRxm-7" value="AWS Cloud" style="swimlane;fillColor=#fff2cc;strokeColor=#d6b656;" parent="1" vertex="1">
          <mxGeometry x="490" y="43" width="350" height="377" as="geometry" />
        </mxCell>
        <mxCell id="LpFCpJJtLy2Ta8kGQRxm-9" value="AWS Firewall" style="image;html=1;image=img/lib/clip_art/networking/Firewall_128x128.png" parent="LpFCpJJtLy2Ta8kGQRxm-7" vertex="1">
          <mxGeometry x="30" y="60" width="65" height="60" as="geometry" />
        </mxCell>
        <mxCell id="LpFCpJJtLy2Ta8kGQRxm-27" value="Perimeter VPC" style="swimlane;startSize=23;fillColor=#f8cecc;strokeColor=#b85450;" parent="LpFCpJJtLy2Ta8kGQRxm-7" vertex="1">
          <mxGeometry x="10" y="36" width="100" height="294" as="geometry" />
        </mxCell>
        <mxCell id="LpFCpJJtLy2Ta8kGQRxm-28" value="OpenShift" style="swimlane;fillColor=#d5e8d4;strokeColor=#82b366;" parent="LpFCpJJtLy2Ta8kGQRxm-7" vertex="1">
          <mxGeometry x="143" y="159" width="180" height="201" as="geometry" />
        </mxCell>
        <mxCell id="LpFCpJJtLy2Ta8kGQRxm-32" value="WebClient" style="aspect=fixed;pointerEvents=1;shadow=0;dashed=0;html=1;strokeColor=none;labelPosition=center;verticalLabelPosition=bottom;verticalAlign=top;align=center;fillColor=#00188D;shape=mxgraph.mscae.enterprise.client_application" parent="LpFCpJJtLy2Ta8kGQRxm-28" vertex="1">
          <mxGeometry x="24.77" y="43.13" width="40.23" height="25.75" as="geometry" />
        </mxCell>
        <mxCell id="LpFCpJJtLy2Ta8kGQRxm-34" value="SpringBoot" style="aspect=fixed;pointerEvents=1;shadow=0;dashed=0;html=1;strokeColor=none;labelPosition=center;verticalLabelPosition=bottom;verticalAlign=top;align=center;fillColor=#00188D;shape=mxgraph.mscae.enterprise.client_application" parent="LpFCpJJtLy2Ta8kGQRxm-28" vertex="1">
          <mxGeometry x="110" y="41.01" width="46.86" height="29.99" as="geometry" />
        </mxCell>
        <mxCell id="LpFCpJJtLy2Ta8kGQRxm-33" value="API gateway" style="outlineConnect=0;dashed=0;verticalLabelPosition=bottom;verticalAlign=top;align=center;html=1;shape=mxgraph.aws3.api_gateway;fillColor=#D9A741;gradientColor=none;" parent="LpFCpJJtLy2Ta8kGQRxm-28" vertex="1">
          <mxGeometry x="118.43000000000006" y="118" width="30" height="40.5" as="geometry" />
        </mxCell>
        <mxCell id="LpFCpJJtLy2Ta8kGQRxm-41" value="" style="endArrow=classic;startArrow=classic;html=1;exitX=0.5;exitY=0;exitDx=0;exitDy=0;exitPerimeter=0;entryX=0.5;entryY=1;entryDx=0;entryDy=0;entryPerimeter=0;" parent="LpFCpJJtLy2Ta8kGQRxm-28" source="LpFCpJJtLy2Ta8kGQRxm-33" target="LpFCpJJtLy2Ta8kGQRxm-34" edge="1">
          <mxGeometry width="50" height="50" relative="1" as="geometry">
            <mxPoint x="-200" y="38" as="sourcePoint" />
            <mxPoint x="-150" y="-12" as="targetPoint" />
          </mxGeometry>
        </mxCell>
        <mxCell id="IvLlfbLEJNB_qxHZJLbw-1" value="" style="endArrow=classic;startArrow=classic;html=1;entryX=0.5;entryY=1;entryDx=0;entryDy=0;entryPerimeter=0;exitX=0;exitY=0.8;exitDx=0;exitDy=0;exitPerimeter=0;" edge="1" parent="LpFCpJJtLy2Ta8kGQRxm-28" source="LpFCpJJtLy2Ta8kGQRxm-33" target="LpFCpJJtLy2Ta8kGQRxm-32">
          <mxGeometry width="50" height="50" relative="1" as="geometry">
            <mxPoint x="-60" y="358" as="sourcePoint" />
            <mxPoint x="-10" y="308" as="targetPoint" />
            <Array as="points">
              <mxPoint x="45" y="150" />
            </Array>
          </mxGeometry>
        </mxCell>
        <mxCell id="LpFCpJJtLy2Ta8kGQRxm-31" value="Key Cloak" style="aspect=fixed;html=1;points=[];align=center;image;fontSize=12;image=img/lib/azure2/security/Key_Vaults.svg;labelPosition=center;verticalLabelPosition=top;verticalAlign=bottom;" parent="LpFCpJJtLy2Ta8kGQRxm-7" vertex="1">
          <mxGeometry x="170" y="83" width="40" height="40" as="geometry" />
        </mxCell>
        <mxCell id="LpFCpJJtLy2Ta8kGQRxm-35" value="" style="endArrow=classic;startArrow=classic;html=1;exitX=0.45;exitY=1.025;exitDx=0;exitDy=0;exitPerimeter=0;entryX=0.5;entryY=0;entryDx=0;entryDy=0;entryPerimeter=0;" parent="LpFCpJJtLy2Ta8kGQRxm-7" source="LpFCpJJtLy2Ta8kGQRxm-31" target="LpFCpJJtLy2Ta8kGQRxm-32" edge="1">
          <mxGeometry width="50" height="50" relative="1" as="geometry">
            <mxPoint x="-57" y="186" as="sourcePoint" />
            <mxPoint x="193" y="456" as="targetPoint" />
          </mxGeometry>
        </mxCell>
        <mxCell id="LpFCpJJtLy2Ta8kGQRxm-38" value="" style="endArrow=classic;startArrow=classic;html=1;entryX=0.5;entryY=0;entryDx=0;entryDy=0;entryPerimeter=0;" parent="LpFCpJJtLy2Ta8kGQRxm-7" source="LpFCpJJtLy2Ta8kGQRxm-30" target="LpFCpJJtLy2Ta8kGQRxm-34" edge="1">
          <mxGeometry width="50" height="50" relative="1" as="geometry">
            <mxPoint x="-57" y="183" as="sourcePoint" />
            <mxPoint x="263" y="423" as="targetPoint" />
          </mxGeometry>
        </mxCell>
        <mxCell id="IvLlfbLEJNB_qxHZJLbw-5" value="VariousÂ  App VPCs" style="swimlane;fillColor=#e1d5e7;strokeColor=#9673a6;" vertex="1" parent="LpFCpJJtLy2Ta8kGQRxm-7">
          <mxGeometry x="126.5" y="30" width="213" height="340" as="geometry" />
        </mxCell>
        <mxCell id="LpFCpJJtLy2Ta8kGQRxm-30" value="AWS RDS" style="outlineConnect=0;dashed=0;verticalLabelPosition=bottom;verticalAlign=top;align=center;html=1;shape=mxgraph.aws3.rds;fillColor=#2E73B8;gradientColor=none;" parent="IvLlfbLEJNB_qxHZJLbw-5" vertex="1">
          <mxGeometry x="129.93" y="47" width="40" height="40" as="geometry" />
        </mxCell>
        <mxCell id="LpFCpJJtLy2Ta8kGQRxm-8" value="ISED Legacy" style="swimlane;fillColor=#dae8fc;strokeColor=#6c8ebf;" parent="1" vertex="1">
          <mxGeometry x="30" y="180" width="280" height="240" as="geometry" />
        </mxCell>
        <mxCell id="LpFCpJJtLy2Ta8kGQRxm-15" value="ISED Perimeter &lt;br&gt;Firewall" style="image;html=1;image=img/lib/clip_art/networking/Firewall_128x128.png;labelPosition=center;verticalLabelPosition=top;align=center;verticalAlign=bottom;" parent="LpFCpJJtLy2Ta8kGQRxm-8" vertex="1">
          <mxGeometry x="190" y="70" width="65" height="60" as="geometry" />
        </mxCell>
        <mxCell id="LpFCpJJtLy2Ta8kGQRxm-25" value="ITB ISED Users" style="rounded=1;whiteSpace=wrap;html=1;" parent="LpFCpJJtLy2Ta8kGQRxm-8" vertex="1">
          <mxGeometry x="30" y="40" width="118" height="40" as="geometry" />
        </mxCell>
        <mxCell id="LpFCpJJtLy2Ta8kGQRxm-42" value="Accolade" style="aspect=fixed;pointerEvents=1;shadow=0;dashed=0;html=1;strokeColor=none;labelPosition=center;verticalLabelPosition=bottom;verticalAlign=top;align=center;fillColor=#00188D;shape=mxgraph.mscae.enterprise.client_application" parent="LpFCpJJtLy2Ta8kGQRxm-8" vertex="1">
          <mxGeometry x="57.76" y="150" width="62.49" height="40" as="geometry" />
        </mxCell>
        <mxCell id="LpFCpJJtLy2Ta8kGQRxm-43" value="" style="endArrow=classic;startArrow=classic;html=1;exitX=0.92;exitY=0.5;exitDx=0;exitDy=0;exitPerimeter=0;entryX=0.5;entryY=1;entryDx=0;entryDy=0;" parent="LpFCpJJtLy2Ta8kGQRxm-8" source="LpFCpJJtLy2Ta8kGQRxm-42" target="LpFCpJJtLy2Ta8kGQRxm-15" edge="1">
          <mxGeometry width="50" height="50" relative="1" as="geometry">
            <mxPoint x="390" as="sourcePoint" />
            <mxPoint x="440" y="-50" as="targetPoint" />
            <Array as="points">
              <mxPoint x="223" y="170" />
            </Array>
          </mxGeometry>
        </mxCell>
        <mxCell id="LpFCpJJtLy2Ta8kGQRxm-44" value="" style="endArrow=classic;startArrow=classic;html=1;exitX=1;exitY=0.5;exitDx=0;exitDy=0;entryX=0;entryY=0.5;entryDx=0;entryDy=0;" parent="LpFCpJJtLy2Ta8kGQRxm-8" source="LpFCpJJtLy2Ta8kGQRxm-25" target="LpFCpJJtLy2Ta8kGQRxm-15" edge="1">
          <mxGeometry width="50" height="50" relative="1" as="geometry">
            <mxPoint x="390" y="18" as="sourcePoint" />
            <mxPoint x="440" y="-32" as="targetPoint" />
          </mxGeometry>
        </mxCell>
        <mxCell id="IvLlfbLEJNB_qxHZJLbw-2" value="" style="endArrow=classic;startArrow=classic;html=1;exitX=0.5;exitY=0;exitDx=0;exitDy=0;exitPerimeter=0;entryX=0.5;entryY=1;entryDx=0;entryDy=0;" edge="1" parent="LpFCpJJtLy2Ta8kGQRxm-8" source="LpFCpJJtLy2Ta8kGQRxm-42" target="LpFCpJJtLy2Ta8kGQRxm-25">
          <mxGeometry width="50" height="50" relative="1" as="geometry">
            <mxPoint x="440" y="190" as="sourcePoint" />
            <mxPoint x="490" y="140" as="targetPoint" />
          </mxGeometry>
        </mxCell>
        <mxCell id="IvLlfbLEJNB_qxHZJLbw-9" value="ISED internal FLow" style="text;html=1;strokeColor=none;fillColor=none;align=center;verticalAlign=middle;whiteSpace=wrap;rounded=0;fontStyle=1" vertex="1" parent="LpFCpJJtLy2Ta8kGQRxm-8">
          <mxGeometry x="240" y="140" width="140" height="20" as="geometry" />
        </mxCell>
        <mxCell id="LpFCpJJtLy2Ta8kGQRxm-19" value="" style="endArrow=classic;startArrow=classic;html=1;exitX=1;exitY=0.5;exitDx=0;exitDy=0;entryX=0.1;entryY=0.5;entryDx=0;entryDy=0;entryPerimeter=0;" parent="1" source="LpFCpJJtLy2Ta8kGQRxm-2" target="LpFCpJJtLy2Ta8kGQRxm-1" edge="1">
          <mxGeometry width="50" height="50" relative="1" as="geometry">
            <mxPoint x="380" y="210" as="sourcePoint" />
            <mxPoint x="430" y="160" as="targetPoint" />
          </mxGeometry>
        </mxCell>
        <mxCell id="LpFCpJJtLy2Ta8kGQRxm-20" value="" style="endArrow=classic;startArrow=classic;html=1;" parent="1" target="LpFCpJJtLy2Ta8kGQRxm-5" edge="1">
          <mxGeometry width="50" height="50" relative="1" as="geometry">
            <mxPoint x="312" y="131" as="sourcePoint" />
            <mxPoint x="430" y="160" as="targetPoint" />
          </mxGeometry>
        </mxCell>
        <mxCell id="LpFCpJJtLy2Ta8kGQRxm-21" value="" style="endArrow=classic;startArrow=classic;html=1;exitX=0;exitY=0.5;exitDx=0;exitDy=0;" parent="1" source="LpFCpJJtLy2Ta8kGQRxm-9" target="LpFCpJJtLy2Ta8kGQRxm-5" edge="1">
          <mxGeometry width="50" height="50" relative="1" as="geometry">
            <mxPoint x="380" y="210" as="sourcePoint" />
            <mxPoint x="440" y="130" as="targetPoint" />
          </mxGeometry>
        </mxCell>
        <mxCell id="LpFCpJJtLy2Ta8kGQRxm-22" value="" style="endArrow=classic;startArrow=classic;html=1;exitX=1;exitY=0.5;exitDx=0;exitDy=0;" parent="1" source="LpFCpJJtLy2Ta8kGQRxm-14" edge="1">
          <mxGeometry width="50" height="50" relative="1" as="geometry">
            <mxPoint x="380" y="210" as="sourcePoint" />
            <mxPoint x="550" y="170" as="targetPoint" />
            <Array as="points">
              <mxPoint x="550" y="280" />
            </Array>
          </mxGeometry>
        </mxCell>
        <mxCell id="LpFCpJJtLy2Ta8kGQRxm-23" value="" style="endArrow=classic;startArrow=classic;html=1;exitX=1;exitY=0.5;exitDx=0;exitDy=0;entryX=0;entryY=0.5;entryDx=0;entryDy=0;" parent="1" source="LpFCpJJtLy2Ta8kGQRxm-15" target="LpFCpJJtLy2Ta8kGQRxm-14" edge="1">
          <mxGeometry width="50" height="50" relative="1" as="geometry">
            <mxPoint x="380" y="210" as="sourcePoint" />
            <mxPoint x="430" y="160" as="targetPoint" />
          </mxGeometry>
        </mxCell>
        <mxCell id="IvLlfbLEJNB_qxHZJLbw-4" value="" style="endArrow=none;html=1;strokeWidth=7;fillColor=#dae8fc;strokeColor=#6c8ebf;" edge="1" parent="1">
          <mxGeometry width="50" height="50" relative="1" as="geometry">
            <mxPoint x="150" y="270" as="sourcePoint" />
            <mxPoint x="660" y="240" as="targetPoint" />
            <Array as="points">
              <mxPoint x="150" y="340" />
              <mxPoint x="250" y="310" />
              <mxPoint x="400" y="310" />
              <mxPoint x="570" y="310" />
              <mxPoint x="570" y="170" />
              <mxPoint x="660" y="140" />
            </Array>
          </mxGeometry>
        </mxCell>
        <mxCell id="IvLlfbLEJNB_qxHZJLbw-6" value="" style="endArrow=none;html=1;strokeWidth=7;fillColor=#ffe6cc;strokeColor=#d79b00;align=center;" edge="1" parent="1">
          <mxGeometry width="50" height="50" relative="1" as="geometry">
            <mxPoint x="130" y="80" as="sourcePoint" />
            <mxPoint x="650" y="240" as="targetPoint" />
            <Array as="points">
              <mxPoint x="410" y="80" />
              <mxPoint x="570" y="150" />
              <mxPoint x="650" y="120" />
              <mxPoint x="650" y="240" />
            </Array>
          </mxGeometry>
        </mxCell>
        <mxCell id="IvLlfbLEJNB_qxHZJLbw-8" value="Public Internet Access Flow&amp;nbsp;" style="text;html=1;strokeColor=none;fillColor=none;align=center;verticalAlign=middle;whiteSpace=wrap;rounded=0;fontStyle=1" vertex="1" parent="1">
          <mxGeometry x="138" y="50" width="172" height="20" as="geometry" />
        </mxCell>
      </root>
    </mxGraphModel>
  </diagram>
</mxfile>
